<svg xmlns="http://www.w3.org/2000/svg" width="39" height="38" viewBox="0 0 39 38">
  <defs>
    <style>
      .cls-1 {
        fill-rule: evenodd;
        opacity: 0.08;
      }
    </style>
  </defs>
  <path id="Quote" class="cls-1" d="M414.05,4763.53v3.21h7.843V4784H405v-17.26h0v-3.21c0-6.51,1.834-11.35,5.452-14.37a14.207,14.207,0,0,1,9.415-3.16v9.25C417.835,4755.25,414.05,4755.25,414.05,4763.53Zm27.924-8.28V4746a14.207,14.207,0,0,0-9.415,3.16c-3.618,3.02-5.452,7.86-5.452,14.37v3.21h0V4784H444v-17.26h-7.843v-3.21C436.157,4755.25,439.941,4755.25,441.974,4755.25Z" transform="translate(-405 -4746)"/>
</svg>
